<mxfile host="app.diagrams.net" agent="Mozilla/5.0 (X11; Ubuntu; Linux x86_64; rv:133.0) Gecko/20100101 Firefox/133.0" version="25.0.3">
  <diagram name="Page-1" id="peh04NGoVXQKsXlL27Pq">
    <mxGraphModel dx="1183" dy="673" grid="1" gridSize="10" guides="1" tooltips="1" connect="1" arrows="1" fold="1" page="1" pageScale="1" pageWidth="850" pageHeight="1100" math="0" shadow="0">
      <root>
        <mxCell id="0" />
        <mxCell id="1" parent="0" />
        <mxCell id="lo1yLwjspY8Cqhcy1PJH-6" value="Parking space application" style="rounded=0;whiteSpace=wrap;html=1;verticalAlign=top;" parent="1" vertex="1">
          <mxGeometry x="190" y="210" width="340" height="280" as="geometry" />
        </mxCell>
        <mxCell id="lo1yLwjspY8Cqhcy1PJH-9" value="request" style="edgeStyle=orthogonalEdgeStyle;rounded=0;orthogonalLoop=1;jettySize=auto;html=1;entryX=0;entryY=0.5;entryDx=0;entryDy=0;endArrow=none;endFill=0;" parent="1" target="lo1yLwjspY8Cqhcy1PJH-7" edge="1">
          <mxGeometry relative="1" as="geometry">
            <mxPoint x="110" y="350" as="sourcePoint" />
          </mxGeometry>
        </mxCell>
        <mxCell id="fne0UW7j2z1bGVLvzZ1--6" style="edgeStyle=orthogonalEdgeStyle;rounded=0;orthogonalLoop=1;jettySize=auto;html=1;endArrow=none;endFill=0;" edge="1" parent="1" source="lo1yLwjspY8Cqhcy1PJH-1" target="fne0UW7j2z1bGVLvzZ1--2">
          <mxGeometry relative="1" as="geometry" />
        </mxCell>
        <mxCell id="fne0UW7j2z1bGVLvzZ1--7" value="request" style="edgeLabel;html=1;align=center;verticalAlign=middle;resizable=0;points=[];" vertex="1" connectable="0" parent="fne0UW7j2z1bGVLvzZ1--6">
          <mxGeometry x="0.5979" y="-1" relative="1" as="geometry">
            <mxPoint x="-17" y="-31" as="offset" />
          </mxGeometry>
        </mxCell>
        <mxCell id="lo1yLwjspY8Cqhcy1PJH-1" value="Customer" style="shape=umlActor;verticalLabelPosition=bottom;verticalAlign=top;html=1;outlineConnect=0;" parent="1" vertex="1">
          <mxGeometry x="80" y="340" width="30" height="60" as="geometry" />
        </mxCell>
        <mxCell id="lo1yLwjspY8Cqhcy1PJH-10" value="request" style="edgeStyle=orthogonalEdgeStyle;rounded=0;orthogonalLoop=1;jettySize=auto;html=1;exitX=0.5;exitY=0;exitDx=0;exitDy=0;exitPerimeter=0;entryX=1;entryY=0.5;entryDx=0;entryDy=0;curved=0;endArrow=none;endFill=0;" parent="1" source="lo1yLwjspY8Cqhcy1PJH-4" target="lo1yLwjspY8Cqhcy1PJH-7" edge="1">
          <mxGeometry relative="1" as="geometry" />
        </mxCell>
        <mxCell id="lo1yLwjspY8Cqhcy1PJH-12" value="import" style="edgeStyle=orthogonalEdgeStyle;rounded=0;orthogonalLoop=1;jettySize=auto;html=1;exitX=0;exitY=0.3333333333333333;exitDx=0;exitDy=0;exitPerimeter=0;entryX=1;entryY=0.5;entryDx=0;entryDy=0;endArrow=none;endFill=0;" parent="1" source="lo1yLwjspY8Cqhcy1PJH-4" target="lo1yLwjspY8Cqhcy1PJH-8" edge="1">
          <mxGeometry relative="1" as="geometry" />
        </mxCell>
        <mxCell id="fne0UW7j2z1bGVLvzZ1--4" style="edgeStyle=orthogonalEdgeStyle;rounded=0;orthogonalLoop=1;jettySize=auto;html=1;entryX=1;entryY=0.5;entryDx=0;entryDy=0;exitX=0;exitY=1;exitDx=0;exitDy=0;exitPerimeter=0;endArrow=none;endFill=0;" edge="1" parent="1" source="lo1yLwjspY8Cqhcy1PJH-4" target="fne0UW7j2z1bGVLvzZ1--2">
          <mxGeometry relative="1" as="geometry">
            <Array as="points">
              <mxPoint x="510" y="400" />
              <mxPoint x="510" y="430" />
            </Array>
          </mxGeometry>
        </mxCell>
        <mxCell id="fne0UW7j2z1bGVLvzZ1--5" value="CRUD" style="edgeLabel;html=1;align=center;verticalAlign=middle;resizable=0;points=[];" vertex="1" connectable="0" parent="fne0UW7j2z1bGVLvzZ1--4">
          <mxGeometry x="0.1513" y="2" relative="1" as="geometry">
            <mxPoint as="offset" />
          </mxGeometry>
        </mxCell>
        <mxCell id="lo1yLwjspY8Cqhcy1PJH-4" value="&lt;div&gt;Admin&lt;/div&gt;" style="shape=umlActor;verticalLabelPosition=bottom;verticalAlign=top;html=1;outlineConnect=0;" parent="1" vertex="1">
          <mxGeometry x="560" y="340" width="30" height="60" as="geometry" />
        </mxCell>
        <mxCell id="lo1yLwjspY8Cqhcy1PJH-7" value="browse parking spaces available" style="ellipse;whiteSpace=wrap;html=1;" parent="1" vertex="1">
          <mxGeometry x="210" y="250" width="120" height="80" as="geometry" />
        </mxCell>
        <mxCell id="lo1yLwjspY8Cqhcy1PJH-13" style="edgeStyle=orthogonalEdgeStyle;rounded=0;orthogonalLoop=1;jettySize=auto;html=1;exitX=0;exitY=0.5;exitDx=0;exitDy=0;entryX=0.5;entryY=1;entryDx=0;entryDy=0;" parent="1" source="lo1yLwjspY8Cqhcy1PJH-8" target="lo1yLwjspY8Cqhcy1PJH-7" edge="1">
          <mxGeometry relative="1" as="geometry" />
        </mxCell>
        <mxCell id="fne0UW7j2z1bGVLvzZ1--3" style="edgeStyle=orthogonalEdgeStyle;rounded=0;orthogonalLoop=1;jettySize=auto;html=1;entryX=0.5;entryY=0;entryDx=0;entryDy=0;" edge="1" parent="1" source="lo1yLwjspY8Cqhcy1PJH-8" target="fne0UW7j2z1bGVLvzZ1--2">
          <mxGeometry relative="1" as="geometry" />
        </mxCell>
        <mxCell id="lo1yLwjspY8Cqhcy1PJH-8" value="&lt;div&gt;import parking&lt;/div&gt;&lt;div&gt;space data&lt;/div&gt;" style="ellipse;whiteSpace=wrap;html=1;" parent="1" vertex="1">
          <mxGeometry x="370" y="320" width="115" height="80" as="geometry" />
        </mxCell>
        <mxCell id="fne0UW7j2z1bGVLvzZ1--8" style="edgeStyle=orthogonalEdgeStyle;rounded=0;orthogonalLoop=1;jettySize=auto;html=1;exitX=0;exitY=0;exitDx=0;exitDy=0;entryX=0;entryY=1;entryDx=0;entryDy=0;" edge="1" parent="1" source="fne0UW7j2z1bGVLvzZ1--2" target="lo1yLwjspY8Cqhcy1PJH-7">
          <mxGeometry relative="1" as="geometry" />
        </mxCell>
        <mxCell id="fne0UW7j2z1bGVLvzZ1--2" value="parking lots" style="ellipse;whiteSpace=wrap;html=1;" vertex="1" parent="1">
          <mxGeometry x="210" y="390" width="120" height="80" as="geometry" />
        </mxCell>
      </root>
    </mxGraphModel>
  </diagram>
</mxfile>
